<svg xmlns="http://www.w3.org/2000/svg" xmlns:xlink="http://www.w3.org/1999/xlink" width="200" height="50" viewBox="0 0 200 50">
    <defs>
        <filter id="pvi56g9nqa" width="141.4%" height="150.2%" x="-20.7%" y="-20.9%" filterUnits="objectBoundingBox">
            <feOffset dy="1.25" in="SourceAlpha" result="shadowOffsetOuter1"/>
            <feGaussianBlur in="shadowOffsetOuter1" result="shadowBlurOuter1" stdDeviation="1.25"/>
            <feColorMatrix in="shadowBlurOuter1" result="shadowMatrixOuter1" values="0 0 0 0 0 0 0 0 0 0 0 0 0 0 0 0 0 0 0.2 0"/>
            <feMerge>
                <feMergeNode in="shadowMatrixOuter1"/>
                <feMergeNode in="SourceGraphic"/>
            </feMerge>
        </filter>
        <filter id="cx2h82keud" width="162%" height="164.6%" x="-31%" y="-30.2%" filterUnits="objectBoundingBox">
            <feOffset dy=".5" in="SourceAlpha" result="shadowOffsetOuter1"/>
            <feGaussianBlur in="shadowOffsetOuter1" result="shadowBlurOuter1" stdDeviation="2.5"/>
            <feColorMatrix in="shadowBlurOuter1" values="0 0 0 0 0 0 0 0 0 0 0 0 0 0 0 0 0 0 0.2 0"/>
        </filter>
        <path id="jsio4t2tsb" d="M22.75 1.005l9.82 5.67c2.321 1.34 3.75 3.815 3.75 6.495v.695c.953.154 1.68.98 1.68 1.975v6c0 .995-.727 1.82-1.68 1.974v.696c0 2.68-1.429 5.155-3.75 6.495l-9.82 5.67c-2.32 1.34-5.18 1.34-7.5 0l-9.82-5.67c-2.321-1.34-3.75-3.816-3.75-6.495v-.696C.726 23.661 0 22.835 0 21.84v-6c0-.996.727-1.821 1.68-1.975v-.695c0-2.68 1.429-5.156 3.75-6.495l9.82-5.67c2.32-1.34 5.18-1.34 7.5 0z"/>
        <path id="pd73o7u99e" d="M24.5 11.34c3.866 0 7 3.358 7 7.5 0 3.712-2.517 6.794-5.822 7.394.209.664.322 1.372.322 2.106 0 3.866-3.134 7-7 7s-7-3.134-7-7c0-.734.113-1.442.323-2.107C9.017 25.634 6.5 22.552 6.5 18.84c0-4.142 3.134-7.5 7-7.5 2.231 0 4.218 1.118 5.5 2.86 1.282-1.742 3.269-2.86 5.5-2.86zm.5 17c-2.667.24-4.667.361-6 .361-1.333 0-3.333-.12-6-.361 0 3.313 2.686 6 6 6s6-2.687 6-6zm-4.25-4.5c-.414 0-.75.336-.75.75s.336.75.75.75.75-.336.75-.75-.336-.75-.75-.75zm-3.5 0c-.414 0-.75.336-.75.75s.336.75.75.75.75-.336.75-.75-.336-.75-.75-.75zm7.25-7c-1.38 0-2.5 1.119-2.5 2.5 0 1.38 1.12 2.5 2.5 2.5s2.5-1.12 2.5-2.5c0-.329-.063-.643-.179-.93-.18.26-.48.43-.821.43-.552 0-1-.448-1-1 0-.34.17-.641.43-.822-.287-.115-.601-.178-.93-.178zm-11 0c-1.38 0-2.5 1.119-2.5 2.5 0 1.38 1.12 2.5 2.5 2.5s2.5-1.12 2.5-2.5c0-.329-.063-.643-.179-.93-.18.26-.48.43-.821.43-.552 0-1-.448-1-1 0-.34.17-.641.43-.822-.287-.115-.601-.178-.93-.178z"/>
        <linearGradient id="71b1fsmrrf" x1="71.399%" x2="20.894%" y1="17.244%" y2="69.093%">
            <stop offset="0%" stop-color="#FFF"/>
            <stop offset="100%" stop-color="#ECEDF1"/>
        </linearGradient>
    </defs>
    <g fill="none" fill-rule="evenodd">
        <g>
            <g>
                <g fill-rule="nonzero">
                    <g>
                        <path fill="#BD6AF8" d="M4.275 17.8v-7.75l5.9 7.75h5.5L8.45 9.025 15.675.25h-5.6l-5.8 7.7V.25H0V17.8h4.275zm21.7.175c2.517 0 4.642-.85 6.375-2.55 1.733-1.7 2.6-3.85 2.6-6.45s-.863-4.746-2.588-6.438C30.637.846 28.512 0 25.987 0c-2.524 0-4.658.846-6.4 2.538-1.741 1.691-2.612 3.837-2.612 6.437s.867 4.75 2.6 6.45c1.75 1.7 3.883 2.55 6.4 2.55zm-.013-3.95c-1.408 0-2.533-.458-3.375-1.375-.841-.917-1.262-2.142-1.262-3.675s.42-2.758 1.262-3.675c.842-.917 1.967-1.375 3.375-1.375 1.409 0 2.534.458 3.375 1.375.842.917 1.263 2.142 1.263 3.675s-.425 2.758-1.275 3.675c-.833.917-1.954 1.375-3.363 1.375zM41.975 17.8v-7.75l5.9 7.75h5.5L46.15 9.025 53.375.25h-5.6l-5.8 7.7V.25H37.7V17.8h4.275zm21.7.175c2.517 0 4.642-.85 6.375-2.55 1.733-1.7 2.6-3.85 2.6-6.45s-.863-4.746-2.588-6.438C68.338.846 66.213 0 63.688 0c-2.526 0-4.659.846-6.4 2.538-1.742 1.691-2.613 3.837-2.613 6.437s.867 4.75 2.6 6.45c1.75 1.7 3.883 2.55 6.4 2.55zm-.012-3.95c-1.409 0-2.534-.458-3.375-1.375-.842-.917-1.263-2.142-1.263-3.675s.42-2.758 1.263-3.675c.841-.917 1.966-1.375 3.375-1.375 1.408 0 2.533.458 3.374 1.375.842.917 1.263 2.142 1.263 3.675s-.425 2.758-1.275 3.675c-.833.917-1.954 1.375-3.363 1.375z" transform="translate(-17 -10) translate(17 10) translate(50.75 13.2)"/>
                        <path fill="#434444" d="M79.675 17.8v-6.825h2.65c1.217 0 2.27-.18 3.162-.537.892-.359 1.563-.821 2.013-1.388.85-1.1 1.275-2.242 1.275-3.425 0-1.483-.567-2.75-1.7-3.8C85.942.775 84.358.25 82.325.25H75.4V17.8h4.275zm2.65-10.075h-2.65V3.5h2.65c.633 0 1.142.2 1.525.6.383.4.575.913.575 1.538s-.188 1.129-.563 1.512c-.374.383-.887.575-1.537.575zm13.3 10.075V.25H91.35V17.8h4.275zm13.35 0v-3.25h-5.325V.25h-4.275V17.8h9.6zm10.35.175c2.517 0 4.642-.85 6.375-2.55 1.733-1.7 2.6-3.85 2.6-6.45s-.863-4.746-2.588-6.438C123.988.846 121.863 0 119.339 0c-2.525 0-4.659.846-6.4 2.538-1.742 1.691-2.613 3.837-2.613 6.437s.867 4.75 2.6 6.45c1.75 1.7 3.883 2.55 6.4 2.55zm-.013-3.95c-1.408 0-2.533-.458-3.374-1.375-.842-.917-1.263-2.142-1.263-3.675s.42-2.758 1.263-3.675c.841-.917 1.966-1.375 3.374-1.375 1.409 0 2.534.458 3.376 1.375.841.917 1.262 2.142 1.262 3.675s-.425 2.758-1.275 3.675c-.833.917-1.954 1.375-3.362 1.375zM138.9 17.8V3.5h4.8V.25h-13.85V3.5h4.775v14.3h4.275z" transform="translate(-17 -10) translate(17 10) translate(50.75 13.2)"/>
                    </g>
                </g>
                <path fill="#77E9CD" fill-rule="nonzero" d="M139.605 42c1.283 0 2.284-.289 3.001-.866.718-.578 1.077-1.356 1.077-2.337 0-.77-.245-1.44-.736-2.012-.49-.572-1.149-.916-1.977-1.032 1.622-.49 2.433-1.43 2.433-2.818 0-.933-.37-1.703-1.112-2.31-.74-.607-1.735-.91-2.983-.91h-5.338V42h5.635zm-.682-7.35h-1.96v-2.66h1.96c.431 0 .778.114 1.04.341.263.228.394.56.394.998 0 .437-.13.767-.393.989-.263.221-.61.332-1.041.332zm.297 5.075h-2.257v-2.8h2.292c.408 0 .74.128.998.385.256.257.385.6.385 1.032 0 .432-.135.77-.403 1.016-.268.245-.607.367-1.015.367zm12.127 2.398c1.762 0 3.25-.595 4.463-1.785s1.82-2.696 1.82-4.516c0-1.82-.604-3.322-1.811-4.506-1.208-1.184-2.695-1.776-4.463-1.776-1.767 0-3.26.592-4.48 1.776-1.219 1.184-1.828 2.686-1.828 4.506 0 1.82.606 3.325 1.82 4.515 1.225 1.19 2.718 1.785 4.48 1.785zm-.008-2.765c-.986 0-1.774-.321-2.363-.963-.589-.642-.883-1.5-.883-2.573s.294-1.93.883-2.572c.59-.642 1.377-.962 2.363-.962s1.773.32 2.362.962c.59.642.884 1.5.884 2.572 0 1.074-.298 1.931-.893 2.573-.583.642-1.367.962-2.353.962zM161.585 42l.683-2.065h4.41L167.36 42h3.202l-4.252-12.32h-3.64L158.4 42h3.185zm4.34-4.34h-2.905l1.452-4.375 1.453 4.375zm9.1 4.34v-4.778h.35L178.14 42h3.5l-3.01-5.005c.98-.28 1.686-.758 2.118-1.435.431-.677.647-1.37.647-2.083 0-1.038-.397-1.924-1.19-2.66-.793-.735-1.902-1.102-3.325-1.102h-4.847V42h2.992zm1.855-7.053h-1.855V31.99h1.855c.443 0 .8.14 1.067.42.269.28.403.639.403 1.076 0 .438-.131.79-.394 1.059-.262.268-.621.402-1.076.402zM188.045 42c1.96 0 3.57-.572 4.83-1.715 1.26-1.143 1.89-2.622 1.89-4.436s-.63-3.29-1.89-4.428c-1.26-1.137-2.87-1.706-4.83-1.706h-4.322V42h4.322zm0-2.275h-1.33V31.99h1.33c1.143 0 2.042.35 2.695 1.05.653.7.98 1.64.98 2.818 0 1.178-.327 2.117-.98 2.817-.653.7-1.552 1.05-2.695 1.05z" transform="translate(-17 -10) translate(17 10)"/>
                <g filter="url(#pvi56g9nqa)" transform="translate(-17 -10) translate(17 10) translate(5.5 3.16)">
                    <g>
                        <mask id="sz5nt3qjxc" fill="#fff">
                            <use xlink:href="#jsio4t2tsb"/>
                        </mask>
                        <use fill="#BD6AF8" xlink:href="#jsio4t2tsb"/>
                        <path fill="#FFF" fill-opacity=".1" d="M22.75-9.995l9.82 5.67c2.321 1.34 3.75 3.815 3.75 6.495v11.34c0 2.68-1.429 5.155-3.75 6.495l-3.022 1.745L27 15.21H11l-2.532 6.55-3.039-1.755c-2.32-1.34-3.75-3.816-3.75-6.495V2.17c0-2.68 1.43-5.156 3.75-6.495l9.821-5.67c2.32-1.34 5.18-1.34 7.5 0z" mask="url(#sz5nt3qjxc)"/>
                        <path d="M16 5.84L22 5.84 22 9.84 16 9.84z" mask="url(#sz5nt3qjxc)"/>
                        <path d="M14.5 23.84L24.5 23.84 24.5 30.34 14.5 30.34z"/>
                    </g>
                    <g>
                        <use fill="#000" filter="url(#cx2h82keud)" xlink:href="#pd73o7u99e"/>
                        <use fill="url(#71b1fsmrrf)" xlink:href="#pd73o7u99e"/>
                    </g>
                </g>
            </g>
        </g>
    </g>
</svg>
