<svg xmlns="http://www.w3.org/2000/svg" width="16" height="16" viewBox="0 0 16 16">
  <path fill="#FFF" fill-rule="evenodd" d="M8,-4.70734562e-14 C9.3254834,-4.70734562e-14 10.4,1.0745166 10.4,2.4 C10.4,3.7254834 9.3254834,4.8 8,4.8 C6.6745166,4.8 5.6,3.7254834 5.6,2.4 C5.6,1.0745166 6.6745166,-4.70734562e-14 8,-4.70734562e-14 Z M2.4,-4.70734562e-14 C3.7254834,-4.70734562e-14 4.8,1.0745166 4.8,2.4 C4.8,3.7254834 3.7254834,4.8 2.4,4.8 C1.0745166,4.8 1.81188398e-13,3.7254834 1.81188398e-13,2.4 C1.81188398e-13,1.0745166 1.0745166,-4.70734562e-14 2.4,-4.70734562e-14 Z M13.6,-4.70734562e-14 C14.9254834,-4.70734562e-14 16,1.0745166 16,2.4 C16,3.7254834 14.9254834,4.8 13.6,4.8 C12.2745166,4.8 11.2,3.7254834 11.2,2.4 C11.2,1.0745166 12.2745166,-4.70734562e-14 13.6,-4.70734562e-14 Z" transform="translate(0 5.5)"/>
</svg>
