<svg xmlns="http://www.w3.org/2000/svg" width="16" height="16" viewBox="0 0 16 16">
  <path fill="#FFF" d="M8.32,0 C5.14032022,0.00372052366 2.56357112,2.6882745 2.56,6.0009843 C2.56,10.2291778 7.65072,15.5815557 7.86744,15.8073428 C8.11877304,16.0642191 8.52122696,16.0642191 8.77256,15.8073428 C8.98928,15.5815557 14.08,10.2291778 14.08,6.0009843 C14.0764289,2.6882745 11.4996798,0.00372052366 8.32,0 Z M8.32,10.0016405 C6.19922656,10.0016405 4.48,8.21048571 4.48,6.0009843 C4.48,3.79148289 6.19922656,2.0003281 8.32,2.0003281 C10.4407734,2.0003281 12.16,3.79148289 12.16,6.0009843 C12.16,8.21048571 10.4407734,10.0016405 8.32,10.0016405 L8.32,10.0016405 Z"/>
</svg>
