<svg xmlns="http://www.w3.org/2000/svg" width="16" height="16" viewBox="0 0 16 16">
  <path fill="#FFF" d="M9.52873563,16 C11.2911877,16 12.6436782,15.6195857 13.5862069,14.8587571 C14.5287356,14.0979284 15,13.0169492 15,11.6158192 C15,10.6967985 14.7279693,9.88700565 14.183908,9.18644068 C13.6398467,8.48587571 12.8773946,8.02259887 11.8965517,7.79661017 C12.7241379,7.58568738 13.3869732,7.16007533 13.8850575,6.51977401 C14.3831418,5.87947269 14.6321839,5.09227872 14.6321839,4.15819209 C14.6321839,2.80225989 14.1570881,1.77024482 13.2068966,1.06214689 C12.256705,0.354048964 10.954023,0 9.29885057,0 L9.29885057,0 L1,0 L1,16 L9.52873563,16 Z M7.77931034,6 L6,6 L6,4 L7.77931034,4 C8.19310345,4 8.5,4.08333333 8.7,4.25 C8.9,4.41666667 9,4.67333333 9,5.02 C9,5.35333333 8.9,5.6 8.7,5.76 C8.5,5.92 8.19310345,6 7.77931034,6 L7.77931034,6 Z M8.525,12 L6,12 L6,10 L8.525,10 C9.50833333,10 10,10.34 10,11.02 C10,11.3666667 9.87916667,11.6166667 9.6375,11.77 C9.39583333,11.9233333 9.025,12 8.525,12 L8.525,12 Z"/>
</svg>
