<svg xmlns="http://www.w3.org/2000/svg" width="16" height="16" viewBox="0 0 16 16">
  <path fill="#FFF" d="M14.4,10.88 C15.2836556,10.88 16,11.5963444 16,12.48 C16,13.3636556 15.2836556,14.08 14.4,14.08 L1.6,14.08 C0.7163444,14.08 0,13.3636556 0,12.48 C0,11.5963444 0.7163444,10.88 1.6,10.88 L14.4,10.88 Z M14.4,6.4 C15.2836556,6.4 16,7.1163444 16,8 C16,8.8836556 15.2836556,9.6 14.4,9.6 L1.6,9.6 C0.7163444,9.6 0,8.8836556 0,8 C0,7.1163444 0.7163444,6.4 1.6,6.4 L14.4,6.4 Z M14.4,1.92 C15.2836556,1.92 16,2.6363444 16,3.52 C16,4.4036556 15.2836556,5.12 14.4,5.12 L1.6,5.12 C0.7163444,5.12 0,4.4036556 0,3.52 C0,2.6363444 0.7163444,1.92 1.6,1.92 L14.4,1.92 Z"/>
</svg>
