<svg xmlns="http://www.w3.org/2000/svg" width="16" height="16" viewBox="0 0 16 16">
  <path fill="#FFF" d="M6.4,12.16 C7.46038672,12.16 8.32,13.0196133 8.32,14.08 C8.32,15.1403867 7.46038672,16 6.4,16 C5.33961328,16 4.48,15.1403867 4.48,14.08 C4.48,13.0196133 5.33961328,12.16 6.4,12.16 Z M12.8,12.16 C13.8603867,12.16 14.72,13.0196133 14.72,14.08 C14.72,15.1403867 13.8603867,16 12.8,16 C11.7396133,16 10.88,15.1403867 10.88,14.08 C10.88,13.0196133 11.7396133,12.16 12.8,12.16 Z M3.22269577,0.00114085604 C4.14613261,0.00114085604 4.94951682,0.633359935 5.16663082,1.53091055 L5.57416225,3.21564803 L13.8619987,3.21564803 C14.9665682,3.21564803 15.8619987,4.11107853 15.8619987,5.21564803 C15.8619987,5.33382918 15.8515236,5.45177776 15.8306965,5.56810925 L15.0600769,9.87246122 C14.8893786,10.825909 14.0599866,11.52 13.0913791,11.52 L6.48915251,11.52 C5.5501177,11.52 4.73753594,10.8667092 4.53583476,9.94959256 L2.93308221,2.66202457 L0.88968353,2.66202457 C0.296561177,2.61675169 -6.00891781e-12,2.1553988 -6.00891781e-12,1.27796591 C-6.00891781e-12,0.459028535 0.258337736,0.0336805474 0.775013209,0.00192194381 L3.22269577,0.00114085604 Z M13.6673991,5.53623465 L5.6671551,5.53623465 L6.34557816,8.85797543 L13.1792777,8.85797543 L13.6673991,5.53623465 Z"/>
</svg>
