<svg xmlns="http://www.w3.org/2000/svg" width="16" height="16" viewBox="0 0 16 16">
  <path fill="#FFF" fill-rule="evenodd" d="M13.6,11.2 C14.9254834,11.2 16,12.2745166 16,13.6 C16,14.9254834 14.9254834,16 13.6,16 C12.2745166,16 11.2,14.9254834 11.2,13.6 C11.2,12.2745166 12.2745166,11.2 13.6,11.2 Z M8,11.2 C9.3254834,11.2 10.4,12.2745166 10.4,13.6 C10.4,14.9254834 9.3254834,16 8,16 C6.6745166,16 5.6,14.9254834 5.6,13.6 C5.6,12.2745166 6.6745166,11.2 8,11.2 Z M2.4,11.2 C3.7254834,11.2 4.8,12.2745166 4.8,13.6 C4.8,14.9254834 3.7254834,16 2.4,16 C1.0745166,16 0,14.9254834 0,13.6 C0,12.2745166 1.0745166,11.2 2.4,11.2 Z M8,5.6 C9.3254834,5.6 10.4,6.6745166 10.4,8 C10.4,9.3254834 9.3254834,10.4 8,10.4 C6.6745166,10.4 5.6,9.3254834 5.6,8 C5.6,6.6745166 6.6745166,5.6 8,5.6 Z M2.4,5.6 C3.7254834,5.6 4.8,6.6745166 4.8,8 C4.8,9.3254834 3.7254834,10.4 2.4,10.4 C1.0745166,10.4 0,9.3254834 0,8 C0,6.6745166 1.0745166,5.6 2.4,5.6 Z M13.6,5.6 C14.9254834,5.6 16,6.6745166 16,8 C16,9.3254834 14.9254834,10.4 13.6,10.4 C12.2745166,10.4 11.2,9.3254834 11.2,8 C11.2,6.6745166 12.2745166,5.6 13.6,5.6 Z M8,0 C9.3254834,0 10.4,1.0745166 10.4,2.4 C10.4,3.7254834 9.3254834,4.8 8,4.8 C6.6745166,4.8 5.6,3.7254834 5.6,2.4 C5.6,1.0745166 6.6745166,0 8,0 Z M13.6,0 C14.9254834,0 16,1.0745166 16,2.4 C16,3.7254834 14.9254834,4.8 13.6,4.8 C12.2745166,4.8 11.2,3.7254834 11.2,2.4 C11.2,1.0745166 12.2745166,0 13.6,0 Z M2.4,0 C3.7254834,0 4.8,1.0745166 4.8,2.4 C4.8,3.7254834 3.7254834,4.8 2.4,4.8 C1.0745166,4.8 0,3.7254834 0,2.4 C0,1.0745166 1.0745166,0 2.4,0 Z"/>
</svg>
