<svg xmlns="http://www.w3.org/2000/svg" width="16" height="16" viewBox="0 0 16 16">
  <path fill="#FFF" d="M7.96627037,13.99997 L7.98551066,16 C8.32069514,16 8.65106506,15.9793864 8.97542185,15.9393578 L8.73020223,13.9544479 C8.56941689,13.9742832 8.4072722,13.9876852 8.24398601,13.9945665 L7.96627037,13.99997 Z M5.98014263,15.7465814 C6.30026218,15.8292128 6.62814778,15.8925251 6.96248181,15.9352007 L7.21558013,13.95128 C6.96663998,13.9194987 6.72117928,13.8723015 6.48014263,13.8100919 L5.98014263,15.7465814 Z M10.8311248,15.4791091 L10.1194846,13.6100001 C9.88660971,13.6986498 9.6480994,13.7726762 9.40503609,13.8315654 L9.87590027,15.775347 C10.2026021,15.6961971 10.5214692,15.5969922 10.8311248,15.4791091 Z M4.11061571,15.0006171 C4.40097553,15.161677 4.70241007,15.305197 5.01348857,15.4297464 L5.7574061,13.5732478 C5.52533652,13.4803578 5.29942433,13.3729529 5.08087409,13.2517321 L4.11061571,15.0006171 Z M12.6529284,14.4980631 L11.4853057,12.8742843 C11.2821016,13.0205308 11.0700452,13.1539226 10.8503796,13.2735928 L11.8074836,15.0297112 C12.100902,14.8698451 12.3832023,14.6921436 12.6529284,14.4980631 Z M2.45066669,13.7763037 C2.69147106,14.0071033 2.94667945,14.2229926 3.2148083,14.422488 L4.40831342,12.8176373 C4.20725177,12.668019 4.01559835,12.5059237 3.83456044,12.3324068 L2.45066669,13.7763037 Z M14.1429774,13.1077344 L12.6044764,11.8298397 C12.4443296,12.0226983 12.2722655,12.205486 12.0893979,12.3770331 L13.4576528,13.8357581 C13.700855,13.6076182 13.9297906,13.3644496 14.1429774,13.1077344 Z M1.20846969,12.2530658 C1.38632201,12.5358683 1.58138591,12.8067539 1.79219189,13.064253 L3.34000409,11.7976522 C3.1812437,11.6037541 3.03474049,11.4002091 2.90144921,11.1882558 L1.20846969,12.2530658 Z M15.2161128,11.4275896 L13.4094623,10.569677 C13.3021933,10.7955604 13.1807969,11.0145259 13.0460611,11.2253404 L14.7310646,12.3027276 C14.9102218,12.0224395 15.0723886,11.7302428 15.2161128,11.4275896 Z M0.345561788,10.3801991 C0.445456647,10.7011853 0.565023074,11.0135019 0.702850757,11.3157385 L2.52247279,10.4856929 C2.41896636,10.2586948 2.32976626,10.0253066 2.25546456,9.78667375 L0.345561788,10.3801991 Z M15.8438587,9.50660703 L13.8792485,9.13203161 C13.8323753,9.37803704 13.7702148,9.61998616 13.6932276,9.85685117 L15.5954498,10.4745494 C15.6976618,10.160002 15.7809144,9.83690494 15.8438587,9.50660703 Z M0,8.4854905 C0.0201965089,8.82288209 0.0613034395,9.15463914 0.122042406,9.47948327 L2.08787107,9.11135549 C2.04212387,8.86656538 2.01153553,8.61800331 1.99645955,8.36653804 L0,8.4854905 Z M15.9817038,7.75082067 L15.9704181,7.50453602 L13.9741233,7.62622051 C13.9815689,7.74797921 13.9853752,7.87039467 13.9855071,7.99337947 C13.9855095,8.12862364 13.9814905,8.25747826 13.9733406,8.38636431 L15.9693565,8.51254151 C15.9748835,8.42512789 15.9790068,8.33733306 15.9817038,8.24917933 L15.9855107,8 L15.9817038,7.75082067 Z M0.131596247,6.47031305 C0.0688359959,6.79443941 0.0256416895,7.12554457 0.00329169815,7.46235014 L1.99892271,7.59447501 C2.01560572,7.34325782 2.0477892,7.0949958 2.09511557,6.85056541 L0.131596247,6.47031305 Z M15.8652193,6.61021065 C15.807189,6.27891872 15.7287758,5.95464024 15.6313201,5.63871559 L13.7200885,6.22794724 C13.7935064,6.4659014 13.8520463,6.70877736 13.8952623,6.95556499 L15.8652193,6.61021065 Z M0.758217574,4.5654509 C0.615625995,4.86497065 0.49110533,5.17475328 0.386065341,5.49338901 L2.28550409,6.1195938 C2.36373654,5.88227227 2.45679079,5.65038024 2.56405344,5.42507689 L0.758217574,4.5654509 Z M15.241886,4.62722029 C15.1005346,4.32362524 14.9406913,4.03037786 14.7638037,3.74892584 L13.0704093,4.81307597 C13.2035214,5.02486738 13.3232336,5.24471239 13.428769,5.4713808 L15.241886,4.62722029 Z M1.86757355,2.84503399 C1.65289992,3.09954841 1.45381915,3.36764421 1.27180419,3.64784843 L2.94898607,4.7373717 C3.08539762,4.52736812 3.23488983,4.32596016 3.39648828,4.13438259 L1.86757355,2.84503399 Z M14.147998,2.89831733 C13.9351379,2.64148494 13.7065291,2.39817745 13.463652,2.16987536 L12.0940436,3.62732965 C12.2767082,3.79904848 12.4485596,3.98199297 12.6084852,4.17499305 L14.147998,2.89831733 Z M3.31908044,1.50122641 C3.04764885,1.69647168 2.78894641,1.9083018 2.54445667,2.13523322 L3.90539381,3.60078785 C4.08916165,3.43024375 4.28334633,3.27129739 4.48673228,3.12498418 L3.31908044,1.50122641 Z M12.700935,1.5367498 C12.4323059,1.34043002 12.1509776,1.16045181 11.858413,0.998278015 L10.8890264,2.74764641 C11.1078002,2.86893 11.3188731,3.00387536 11.5210021,3.1516053 L12.700935,1.5367498 Z M5.12479344,0.526658158 C4.81183585,0.646528189 4.50832846,0.785490992 4.21569667,0.942121162 L5.15959179,2.70537441 C5.3798133,2.5875066 5.60720541,2.48355119 5.84057379,2.3941856 L5.12479344,0.526658158 Z M10.9215227,0.555937742 C10.6132049,0.434235128 10.2955125,0.331133409 9.96982848,0.248015696 L9.47555921,2.18597803 C9.71784305,2.24782458 9.95544565,2.32476811 10.1872716,2.41628055 L10.9215227,0.555937742 Z M7.15847505,0.0422306504 C6.82337191,0.0766472274 6.49439865,0.13174765 6.1728531,0.206234069 L6.62385582,2.15471982 C6.86638581,2.09852211 7.11309992,2.05740018 7.36307568,2.0317378 L7.15847505,0.0422306504 Z M7.98551066,2 C8.23859193,2 8.48924038,2.01555724 8.73666218,2.04635262 L8.9844581,0.0617625738 C8.76628707,0.0345863791 8.54538861,0.0161950779 8.32212786,0.00695378758 L7.98551066,0 L7.98551066,2 Z"/>
</svg>
