<svg xmlns="http://www.w3.org/2000/svg" width="16" height="16" viewBox="0 0 16 16">
  <path fill="#FFF" d="M12.4,2 C13.2836556,2 14,2.7163444 14,3.6 L13.9968762,3.6991981 C13.9989484,3.73253254 14,3.76614346 14,3.8 L14,10.999 L14.4,11 C15.2836556,11 16,11.7163444 16,12.6 C16,13.4836556 15.2836556,14.2 14.4,14.2 L14,14.199 L14,14.6 C14,15.4836556 13.2836556,16.2 12.4,16.2 C11.5163444,16.2 10.8,15.4836556 10.8,14.6 L10.8,5.199 L7.6,5.2 C6.7163444,5.2 6,4.4836556 6,3.6 C6,2.7163444 6.7163444,2 7.6,2 L12.4,2 Z M3.6,0 C4.4836556,-1.623249e-16 5.2,0.7163444 5.2,1.6 L5.2,10.999 L8.4,11 C9.2836556,11 10,11.7163444 10,12.6 C10,13.4836556 9.2836556,14.2 8.4,14.2 L3.6,14.2 C2.7163444,14.2 2,13.4836556 2,12.6 L2.00306199,12.4998018 C2.00103065,12.4667952 2,12.433518 2,12.4 L2,5.199 L1.6,5.2 C0.7163444,5.2 1.81750948e-13,4.4836556 1.81534515e-13,3.6 C1.81318082e-13,2.7163444 0.7163444,2 1.6,2 L2,1.999 L2,1.6 C2,0.7163444 2.7163444,1.623249e-16 3.6,0 Z"/>
</svg>
