<svg xmlns="http://www.w3.org/2000/svg" width="16" height="16" viewBox="0 0 16 16">
  <path fill="#FFF" fill-rule="evenodd" d="M8.81174934,0.987379237 L11.1095449,2.97213532 C11.3425188,3.17337002 11.3682484,3.52536557 11.1670137,3.75833939 C11.1511072,3.77675471 11.1340119,3.79410866 11.1158375,3.81028987 C10.8441734,4.05216027 10.435328,4.05525746 10.1600308,3.81753054 L9.59982566,3.33315133 L9.59982566,6.39915133 L12.5188257,6.39915133 L12.1844749,6.01174924 C11.9768377,5.77136316 11.9641334,5.42508449 12.1398973,5.17219862 L12.2146306,5.08213343 C12.2257044,5.07087841 12.2372309,5.06007777 12.2491813,5.04975822 C12.4929495,4.83925751 12.8612072,4.8662261 13.0717079,5.10999426 L13.0717079,5.10999426 L15.2038476,7.57909647 C15.4082363,7.81578671 15.4346098,8.15119476 15.2842715,8.41326385 C15.2519181,8.57996623 15.1769864,8.74075772 15.0585252,8.87790285 L13.0737691,11.1756984 C12.8725344,11.4086723 12.5205389,11.4344019 12.287565,11.2331672 C12.2691497,11.2172607 12.2517958,11.2001654 12.2356146,11.181991 C11.9937442,10.910327 11.990647,10.5014815 12.2283739,10.2261843 L12.7688257,9.59915133 L9.59982566,9.59915133 L9.59982566,12.6931513 L10.1600308,12.2096033 C10.4047394,11.9982905 10.7549676,11.9772585 11.0205734,12.1450668 L11.1158375,12.216844 C11.1340119,12.2330252 11.1511072,12.2503792 11.1670137,12.2687945 C11.3682484,12.5017683 11.3425188,12.8537639 11.1095449,13.0549986 L11.1095449,13.0549986 L8.81174934,15.0397546 C8.60189497,15.2210196 8.33667503,15.3003646 8.0784939,15.279814 C7.81965198,15.3005697 7.55401722,15.2212541 7.34389137,15.0397546 L5.04609577,13.0549986 C4.81312195,12.8537639 4.78739231,12.5017683 4.98862701,12.2687945 C5.00453352,12.2503792 5.02162884,12.2330252 5.03980325,12.216844 C5.31146727,11.9749736 5.72031273,11.9718764 5.99560991,12.2096033 L6.39982566,12.5591513 L6.39982566,9.59915133 L3.36382566,9.59915133 L3.90547543,10.2261843 C4.11678824,10.4708929 4.13782028,10.8211211 3.97001196,11.0867269 L3.89823476,11.181991 C3.88205355,11.2001654 3.8646996,11.2172607 3.84628428,11.2331672 C3.61331046,11.4344019 3.26131491,11.4086723 3.06008021,11.1756984 L3.06008021,11.1756984 L1.07532413,8.87790285 C0.956862928,8.74075772 0.881931238,8.57996623 0.849964032,8.41294652 C0.699239494,8.15119476 0.725613006,7.81578671 0.930001737,7.57909647 L3.06214146,5.10999426 C3.27264218,4.8662261 3.64089986,4.83925751 3.88466802,5.04975822 C3.89661847,5.06007777 3.90814489,5.07087841 3.91921878,5.08213343 C4.1698462,5.33686025 4.18296624,5.7413149 3.94937445,6.01174924 L3.61382566,6.39915133 L6.39982566,6.39915133 L6.39982566,3.46715133 L5.99560991,3.81753054 C5.75090131,4.02884335 5.40067307,4.04987539 5.13506735,3.88206707 L5.03980325,3.81028987 C5.02162884,3.79410866 5.00453352,3.77675471 4.98862701,3.75833939 C4.78739231,3.52536557 4.81312195,3.17337002 5.04609577,2.97213532 L5.04609577,2.97213532 L7.34389137,0.987379237 C7.55401722,0.805879819 7.81965198,0.726564188 8.07814877,0.74740015 C8.33667503,0.726769309 8.60189497,0.806114315 8.81174934,0.987379237 Z"/>
</svg>
