<svg xmlns="http://www.w3.org/2000/svg" width="16" height="16" viewBox="0 0 16 16">
  <path fill="#FFF" d="M4.21724347,1.82813409 L7.99933333,5.61033333 L11.7827565,1.82813409 C12.4424909,1.16839975 13.5121316,1.16839975 14.1718659,1.82813409 C14.8316003,2.48786843 14.8316003,3.55750913 14.1718659,4.21724347 L10.3883333,7.99933333 L14.1718659,11.7827565 C14.8316003,12.4424909 14.8316003,13.5121316 14.1718659,14.1718659 C13.5121316,14.8316003 12.4424909,14.8316003 11.7827565,14.1718659 L7.99933333,10.3883333 L4.21724347,14.1718659 C3.55750913,14.8316003 2.48786843,14.8316003 1.82813409,14.1718659 C1.16839975,13.5121316 1.16839975,12.4424909 1.82813409,11.7827565 L5.61033333,7.99933333 L1.82813409,4.21724347 C1.16839975,3.55750913 1.16839975,2.48786843 1.82813409,1.82813409 C2.48786843,1.16839975 3.55750913,1.16839975 4.21724347,1.82813409 Z"/>
</svg>
