<svg xmlns="http://www.w3.org/2000/svg" width="16" height="16" viewBox="0 0 16 16">
  <path fill="#FFF" fill-rule="evenodd" d="M7.10557281,0.683281573 C8.0935298,0.189303076 9.29487588,0.589751769 9.78885438,1.57770876 L9.78885438,1.57770876 L15.5527864,13.1055728 C15.6916418,13.3832837 15.763932,13.6895098 15.763932,14 C15.763932,15.1045695 14.8685015,16 13.763932,16 L13.763932,16 L2.23606798,16 C1.92557779,16 1.61935166,15.9277098 1.34164079,15.7888544 C0.353683792,15.2948759 -0.0467649019,14.0935298 0.447213595,13.1055728 L0.447213595,13.1055728 L6.21114562,1.57770876 C6.40467302,1.19065396 6.718518,0.876808975 7.10557281,0.683281573 Z M8,12 C7.44771525,12 7,12.4477153 7,13 C7,13.5522847 7.44771525,14 8,14 C8.55228475,14 9,13.5522847 9,13 C9,12.4477153 8.55228475,12 8,12 Z M8,5 C7.44771525,5 7,5.44771525 7,6 L7,10 C7,10.5522847 7.44771525,11 8,11 C8.55228475,11 9,10.5522847 9,10 L9,6 C9,5.44771525 8.55228475,5 8,5 Z"/>
</svg>
