<svg xmlns="http://www.w3.org/2000/svg" width="16" height="16" viewBox="0 0 16 16">
  <path fill="#FFF" d="M.0888335357 5.08099346L5.6409904 12.3326536C5.85367014 12.6106405 6.28514726 12.3484967 6.13897733 12.0301438L2.81050674 4.7783268C2.7626636 4.67416993 2.65884661 4.60732026 2.54451981 4.60732026L.321016542 4.60732026C.0781668691 4.60732026-.0591664643 4.88750327.0888335357 5.08099346zM15.9428466 3.576L14.8923368 2.13500654C14.7604937 1.95401307 14.4838401 1.98183007 14.3901669 2.18551634L13.7276571 3.6265098C13.6381669 3.82151634 13.7798139 4.04418301 13.993644 4.04418301L15.7063237 4.04418301C15.9465067 4.044 16.0844937 3.7703268 15.9428466 3.576zM1.11416687 2.12583007L.057173405 3.576C-.0846566603 3.7703268.0536701371 4.04415686.293330268 4.04415686L2.01599693 4.04415686C2.22967014 4.04415686 2.3715002 3.82164706 2.28198386 3.62666667L1.61649367 2.17665359C1.52300347 1.9728366 1.24616687 1.9448366 1.11416687 2.12583007zM14.11801 1.07249673L13.4239969.120496732C13.3688335.0448366013 13.2809904 0 13.1878401 0L9.25050674 0C8.97801001 0 8.85301654.340993464 9.06067667.518326797 10.2508466 1.53416993 11.8595002 2.9031634 12.7045198 3.62198693 12.8521799 3.74766013 13.0778531 3.69681046 13.1590296 3.52031373L14.1475263 1.3694902C14.1921799 1.27249673 14.1808335 1.15882353 14.11801 1.07249673zM6.76368321 0L2.81217994 0C2.71884661 0 2.63100347.0448366013 2.57584007.120496732L1.88883354 1.06300654C1.82601001 1.14917647 1.8146636 1.26300654 1.85916033 1.36L2.8506636 3.52049673C2.93165707 3.69699346 3.15717341 3.74815686 3.3049904 3.6225098 4.1546636 2.9008366 5.77482046 1.52384314 6.95333027.518352941 7.16101654.341150327 7.03617994 0 6.76368321 0zM3.54133027 5.0248366L7.73584007 14.1631634C7.84051981 14.3911634 8.16300347 14.3913203 8.26768321 14.1633203L12.4675263 5.02499346C12.5571995 4.82998693 12.4153695 4.60750316 12.2015133 4.60750316L3.80734334 4.60750316C3.59367014 4.60732026 3.45184007 4.82983007 3.54133027 5.0248366zM11.7235002 3.5256732C10.6759969 2.63416993 9.17450674 1.35584314 8.19599693.519346405 8.0866636.425856209 7.9275002.425856209 7.81798386.519346405 6.85714726 1.34117647 5.34365707 2.62833987 4.28765707 3.5256732 4.0793172 3.70266667 4.20465053 4.044 4.47748713 4.044L11.533644 4.044C11.8063499 4.044 11.9316832 3.70282353 11.7235002 3.5256732zM10.3711603 12.3169935L15.9111603 5.08099346C16.0593172 4.88750327 15.9219839 4.60732026 15.6790035 4.60732026L13.4644937 4.60732026C13.3501669 4.60732026 13.2463237 4.67398693 13.1985067 4.77814379L9.87301654 12.0141438C9.72684661 12.3326536 10.1581669 12.5950065 10.3711603 12.3169935z" transform="translate(0 .662)"/>
</svg>
