<svg xmlns="http://www.w3.org/2000/svg" width="16" height="16" viewBox="0 0 16 16">
  <path fill="#FFF" d="M15.5525451,7.20130065 C15.5824342,7.2285415 15.6110469,7.2571507 15.6382914,7.28703648 C16.0935721,7.78645585 16.0905282,8.54209202 15.6530491,9.03722401 L15.5526628,9.1391481 L8.70549482,15.3811646 C8.50386705,15.5649725 8.24682125,15.6511724 7.99327849,15.6414136 C7.73971214,15.6513997 7.48225402,15.565215 7.28036025,15.3811646 L0.433192265,9.1391481 C-0.101899915,8.65134728 -0.140237133,7.82212866 0.347563692,7.28703648 C0.374808171,7.2571507 0.403420846,7.2285415 0.433309934,7.20130065 C1.03568496,6.65229736 1.95702991,6.65229736 2.55940493,7.20130065 L7.993,12.1528462 L13.4264501,7.20130065 C14.0288252,6.65229736 14.9501701,6.65229736 15.5525451,7.20130065 Z M15.5525451,1.0474545 C15.5824342,1.07469535 15.6110469,1.10330455 15.6382914,1.13319032 C16.0935721,1.63260969 16.0905282,2.38824587 15.6530491,2.88337786 L15.5526628,2.98530195 L8.70549482,9.2273184 C8.50386705,9.41112635 8.24682125,9.49732624 7.99327849,9.48756749 C7.73971214,9.49755351 7.48225402,9.41136884 7.28036025,9.2273184 L0.433192265,2.98530195 C-0.101899915,2.49750112 -0.140237133,1.6682825 0.347563692,1.13319032 C0.374808171,1.10330455 0.403420846,1.07469535 0.433309934,1.0474545 C1.03568496,0.498451209 1.95702991,0.498451209 2.55940493,1.0474545 L7.993,5.999 L13.4264501,1.0474545 C14.0288252,0.498451209 14.9501701,0.498451209 15.5525451,1.0474545 Z" transform="rotate(-90 7.68 8.32)"/>
</svg>
