<svg xmlns="http://www.w3.org/2000/svg" width="16" height="16" viewBox="0 0 16 16">
  <path fill="#FFF" d="M15.4510363,6.83575641 L15.5663067,6.93627967 L15.604464,6.97443237 C16.1150867,7.50474705 16.1320348,8.32899781 15.6660619,8.8787471 L15.5664315,8.98486851 L8.73356364,15.5640141 C8.72920072,15.568215 8.72479973,15.5723762 8.72036121,15.5764971 C8.51746599,15.7648753 8.25727449,15.8529192 8.0008806,15.8428957 C7.74340231,15.853148 7.48279785,15.7651202 7.27963879,15.5764971 C7.27520027,15.5723762 7.27079928,15.568215 7.26643636,15.5640141 L0.433568506,8.98486851 C-0.132100492,8.44020429 -0.149128225,7.54010137 0.395535999,6.97443237 L0.433693344,6.93627967 C1.02775771,6.36441399 1.96760522,6.36441399 2.56166959,6.93627967 L8,12.1715391 L13.4383304,6.93627967 C13.9952658,6.40015559 14.8561121,6.36664784 15.4510363,6.83575641 Z M15.4510363,0.330217298 L15.5663067,0.430740563 L15.604464,0.468893258 C16.1150867,0.999207943 16.1320348,1.82345869 15.6660619,2.37320799 L15.5664315,2.4793294 L8.73356364,9.05847495 L8.72036121,9.07095799 L8.72036121,9.07095799 C8.51746599,9.25933617 8.25727449,9.34738012 8.0008806,9.33735654 C7.74340231,9.34760893 7.48279785,9.25958113 7.27963879,9.07095799 C7.27520027,9.06683704 7.27079928,9.06267586 7.26643636,9.05847495 L0.433568506,2.4793294 C-0.132100492,1.93466518 -0.149128225,1.03456226 0.395535999,0.468893258 L0.433693344,0.430740563 C1.02775771,-0.141125125 1.96760522,-0.141125125 2.56166959,0.430740563 L8,5.666 L13.4383304,0.430740563 C13.9952658,-0.105383519 14.8561121,-0.138891275 15.4510363,0.330217298 Z"/>
</svg>
