<svg xmlns="http://www.w3.org/2000/svg" width="16" height="16" viewBox="0 0 16 16">
  <path fill="#FFF" fill-rule="evenodd" d="M12.4,12.8 C13.2836556,12.8 14,13.5163444 14,14.4 C14,15.2836556 13.2836556,16 12.4,16 L3.6,16 C2.7163444,16 2,15.2836556 2,14.4 C2,13.5163444 2.7163444,12.8 3.6,12.8 L12.4,12.8 Z M8,0 C8.8836556,-1.623249e-16 9.6,0.7163444 9.6,1.6 L9.6,5.911 L10.652043,4.92211905 C11.246107,4.36340148 12.1540054,4.33657346 12.7780827,4.83608116 L12.8989368,4.94299887 C12.9140631,4.95776441 12.9288737,4.97284992 12.9433586,4.98824517 C13.472427,5.55056491 13.480223,6.41515827 12.9849045,6.98603744 L12.879138,7.0961205 L8.72327134,11.0062409 C8.35379897,11.3538655 7.78929332,11.3661362 7.40625234,11.0532151 L7.31449048,10.9682159 L6.75261946,10.3786371 L3.13683858,7.07888074 C2.53770552,6.5320003 2.49534642,5.6029728 3.04222686,5.00383975 C3.06125047,4.98299849 3.08087072,4.96270978 3.10106318,4.94299887 C3.72618051,4.33278929 4.71871002,4.31596334 5.36415146,4.90463365 L6.4,5.849 L6.4,1.6 C6.4,0.7163444 7.1163444,1.623249e-16 8,0 Z"/>
</svg>
