<svg xmlns="http://www.w3.org/2000/svg" width="16" height="16" viewBox="0 0 16 16">
  <path fill="#FFF" d="M13.4335226,4.6173672 C14.0296099,4.05236363 14.9635303,4.05236363 15.5596176,4.6173672 C15.577559,4.63437298 15.595043,4.65185487 15.6120509,4.66979416 C16.1396538,5.22628738 16.1162335,6.10512089 15.5597403,6.63272375 L15.5597403,6.63272375 L8.7276721,13.110105 L8.7276721,13.110105 C8.52216244,13.3038907 8.25934822,13.3938271 8.00028718,13.3836372 C7.74132836,13.3940585 7.47809951,13.3041377 7.27430684,13.1119761 L7.2723279,13.110105 L0.440259673,6.63272375 C-0.116233547,6.10512089 -0.139653809,5.22628738 0.387949053,4.66979416 C0.404957024,4.65185487 0.422441038,4.63437298 0.440382398,4.6173672 C1.03646969,4.05236363 1.9703901,4.05236363 2.56647739,4.6173672 L7.99907246,9.76761452 Z"/>
</svg>
