<svg xmlns="http://www.w3.org/2000/svg" width="16" height="16" viewBox="0 0 16 16">
  <path fill="#FFF" fill-rule="evenodd" d="M13.6,8.8 C14.9254834,8.8 16,9.8745166 16,11.2 C16,12.5254834 14.9254834,13.6 13.6,13.6 C12.2745166,13.6 11.2,12.5254834 11.2,11.2 C11.2,9.8745166 12.2745166,8.8 13.6,8.8 Z M8,8.8 C9.3254834,8.8 10.4,9.8745166 10.4,11.2 C10.4,12.5254834 9.3254834,13.6 8,13.6 C6.6745166,13.6 5.6,12.5254834 5.6,11.2 C5.6,9.8745166 6.6745166,8.8 8,8.8 Z M2.4,8.8 C3.7254834,8.8 4.8,9.8745166 4.8,11.2 C4.8,12.5254834 3.7254834,13.6 2.4,13.6 C1.0745166,13.6 0,12.5254834 0,11.2 C0,9.8745166 1.0745166,8.8 2.4,8.8 Z M8,3.2 C9.3254834,3.2 10.4,4.2745166 10.4,5.6 C10.4,6.9254834 9.3254834,8 8,8 C6.6745166,8 5.6,6.9254834 5.6,5.6 C5.6,4.2745166 6.6745166,3.2 8,3.2 Z M2.4,3.2 C3.7254834,3.2 4.8,4.2745166 4.8,5.6 C4.8,6.9254834 3.7254834,8 2.4,8 C1.0745166,8 0,6.9254834 0,5.6 C0,4.2745166 1.0745166,3.2 2.4,3.2 Z M13.6,3.2 C14.9254834,3.2 16,4.2745166 16,5.6 C16,6.9254834 14.9254834,8 13.6,8 C12.2745166,8 11.2,6.9254834 11.2,5.6 C11.2,4.2745166 12.2745166,3.2 13.6,3.2 Z"/>
</svg>
