<svg xmlns="http://www.w3.org/2000/svg" width="16" height="16" viewBox="0 0 16 16">
  <path fill="#FFF" d="M8.00001172,2.66666667 C12.3025721,2.66666667 15.7377267,7.40333827 15.8805391,7.60474074 C16.0398203,7.82984691 16.0398203,8.17015309 15.8805391,8.39525926 C15.7376954,8.59666173 12.3025096,13.3333333 8.00001172,13.3333333 C3.69751382,13.3333333 0.262327997,8.59666173 0.119484317,8.39525926 C-0.0398281056,8.17015309 -0.0398281056,7.82984691 0.119484317,7.60474074 C0.262327997,7.40333827 3.69745132,2.66666667 8.00001172,2.66666667 Z M8,4 C5.79462857,4 4,5.79462857 4,8 C4,10.2053714 5.79462857,12 8,12 C10.2053714,12 12,10.2053714 12,8 C12,5.79462857 10.2053714,4 8,4 Z M8,5.33333333 C8.35065698,5.33333333 8.68550603,5.40101515 8.99219622,5.52402787 C8.71451335,5.71660936 8.53333333,6.03714625 8.53333333,6.4 C8.53333333,6.98910373 9.01089627,7.46666667 9.6,7.46666667 C9.96295695,7.46666667 10.283573,7.28538357 10.4762434,7.00842205 C10.5989848,7.31449397 10.6666667,7.64934302 10.6666667,8 C10.6666667,9.47275933 9.47275933,10.6666667 8,10.6666667 C6.52724067,10.6666667 5.33333333,9.47275933 5.33333333,8 C5.33333333,6.52724067 6.52724067,5.33333333 8,5.33333333 Z"/>
</svg>
