<svg xmlns="http://www.w3.org/2000/svg" width="16" height="16" viewBox="0 0 16 16">
  <g fill="none" fill-rule="evenodd">
    <path fill="#FFF" d="M6.9125,1.31226782 L6.9125,15 C6.9125,15.5522847 6.46478475,16 5.9125,16 L1.46398704,16 C0.911702292,16 0.463987042,15.5522847 0.463987042,15 C0.463987042,14.89504 0.480511309,14.7907344 0.512952974,14.6909139 L4.96146593,1.00318175 C5.13216946,0.477940137 5.69634446,0.190530229 6.22158607,0.361233754 C6.63357355,0.495129684 6.9125,0.879068328 6.9125,1.31226782 Z"/>
    <path fill="#FFF" d="M15.9125,1.31226782 L15.9125,15 C15.9125,15.5522847 15.4647847,16 14.9125,16 L10.463987,16 C9.91170229,16 9.46398704,15.5522847 9.46398704,15 C9.46398704,14.89504 9.48051131,14.7907344 9.51295297,14.6909139 L13.9614659,1.00318175 C14.1321695,0.477940137 14.6963445,0.190530229 15.2215861,0.361233754 C15.6335736,0.495129684 15.9125,0.879068328 15.9125,1.31226782 Z" transform="matrix(-1 0 0 1 25 0)"/>
  </g>
</svg>
