<svg xmlns="http://www.w3.org/2000/svg" width="16" height="16" viewBox="0 0 16 16">
  <path fill="#FFF" d="M9.02109342,3.87701868e-05 C9.18205129,0.0068513392 9.34233314,0.035268151 9.49765133,0.0852892057 C9.64090807,0.144158953 9.77394418,0.233165902 9.88601875,0.352219782 L14.4971406,5.25049385 C15.4531532,6.26604104 15.9857518,7.61345109 15.9995894,9.04756463 C15.9851691,10.5553032 15.421628,11.9701307 14.4096694,13.0374652 L14.4096694,13.0374652 L12.9407861,14.5867281 C12.0775732,15.4971773 10.9302186,15.9984276 9.70972559,15.9984276 L9.70972559,15.9984276 L5.61459546,15.9984276 C4.39071423,15.9984276 3.30215179,15.3747067 2.61968302,14.4128571 L2.53767586,14.2900265 C2.25578175,13.7793998 2.09406068,13.1852467 2.09406068,12.5516974 L2.09406068,11.7707857 L3.15645425,12.900308 C3.33722803,13.0923393 3.63111578,13.0923393 3.81188955,12.900308 C3.90179843,12.8037846 3.94725261,12.6777641 3.94725261,12.5516974 C3.94725261,12.4256308 3.90275445,12.2996103 3.81188955,12.2030869 L0.34381421,8.51904116 C0.126471369,8.28816355 0.00458040471,7.9815165 -1.93936379e-13,7.65573393 C0.000897231072,7.58405698 0.00535550954,7.51298206 0.0133999378,7.44227933 C0.0521350982,7.18265555 0.166046989,6.9431299 0.34381421,6.75429243 C0.788795809,6.2825695 1.56195134,6.2825695 2.00602038,6.75429243 L3.15649771,7.97641439 C3.33727148,8.16844564 3.63115923,8.16844564 3.81193301,7.97641439 C3.90184189,7.87989099 3.94729606,7.75387048 3.94729606,7.62780381 C3.94729606,7.50173714 3.9027979,7.37571663 3.81193301,7.27919323 L1.73442516,5.07231101 C1.27645045,4.58581645 1.27645045,3.79308744 1.73442516,3.30659289 C2.19239988,2.82009833 2.93865662,2.82009833 3.39663133,3.30659289 L5.47413917,5.5144445 C5.65491295,5.70647575 5.9488007,5.70647575 6.12957447,5.5144445 C6.22043937,5.4179211 6.26493753,5.29190059 6.26493753,5.16583392 C6.26493753,5.03976725 6.22043937,4.91374674 6.12957447,4.81722334 L4.74735038,3.34892285 C4.52577214,3.11354608 4.4034022,2.79941804 4.4034022,2.46654848 C4.4034022,2.13367893 4.52577214,1.81955088 4.74735038,1.58417412 C5.20532509,1.09767956 5.95158183,1.09767956 6.40955655,1.58417412 L7.79178064,3.05247461 C7.97255442,3.24450586 8.26644217,3.24450586 8.44721594,3.05247461 C8.53712482,2.95595121 8.58257899,2.8299307 8.58257899,2.70386403 C8.58257899,2.57779736 8.53808084,2.45177685 8.44721594,2.35525345 L8.22381258,2.1179379 C7.76583787,1.63144335 7.76583787,0.838714339 8.22381258,0.352219782 C8.43147066,0.132082418 8.71059773,0.0146758242 8.99439665,9.05733821e-14 Z"/>
</svg>
