<svg xmlns="http://www.w3.org/2000/svg" width="16" height="16" viewBox="0 0 16 16">
  <path fill="#FFF" fill-rule="evenodd" d="M3,16 C2.44771525,16 2,15.5522847 2,15 L2,14 C2,13.4477153 2.44771525,13 3,13 L4.938,13 L8.063,3 L7,3 C6.44771525,3 6,2.55228475 6,2 L6,1 C6,0.44771525 6.44771525,1.01453063e-16 7,0 L13,0 C13.5522847,-1.01453063e-16 14,0.44771525 14,1 L14,2 C14,2.55228475 13.5522847,3 13,3 L11.063,3 L7.938,13 L9,13 C9.55228475,13 10,13.4477153 10,14 L10,15 C10,15.5522847 9.55228475,16 9,16 L3,16 Z"/>
</svg>
