<svg xmlns="http://www.w3.org/2000/svg" width="16" height="16" viewBox="0 0 16 16">
  <g fill="#FFF" fill-rule="evenodd">
    <path d="M8,1.28 C11.7113535,1.28 14.72,4.28864648 14.72,8 C14.72,11.7113535 11.7113535,14.72 8,14.72 C4.28864648,14.72 1.28,11.7113535 1.28,8 C1.28,4.28864648 4.28864648,1.28 8,1.28 Z M6.08,3.84 C5.54980664,3.84 5.12,4.26980664 5.12,4.8 L5.12,4.8 L5.12,11.84 C5.12,12.3701934 5.54980664,12.8 6.08,12.8 C6.61019336,12.8 7.04,12.3701934 7.04,11.84 L7.04,11.84 L7.04,9.674 L9.40121818,12.4525221 L9.48606449,12.5400861 C9.81377076,12.8365812 10.3145354,12.8617908 10.6723381,12.5832211 C11.0417608,12.2956046 11.1080778,11.762969 10.8204612,11.3935463 L10.8204612,11.3935463 L10.8091601,11.3793469 L10.8091601,11.3793469 L10.7975575,11.3653927 L8.21,8.321 L10.7975575,5.27614052 C10.8053921,5.26692053 10.8130285,5.25753386 10.8204612,5.24798698 C11.1080778,4.87856426 11.0417608,4.34592869 10.6723381,4.05831215 C10.2820078,3.75441793 9.72154115,3.8120462 9.40121818,4.18901114 L9.40121818,4.18901114 L7.04,6.967 L7.04,4.8 C7.04,4.26980664 6.61019336,3.84 6.08,3.84 Z"/>
    <path fill-rule="nonzero" d="M7.9961538,9.09494702e-15 C3.58846152,9.09494702e-15 5.00222086e-14,3.58846154 5.00222086e-14,7.99615385 C5.00222086e-14,12.4038462 3.58846152,15.9884615 7.9961538,15.9884615 C12.4038461,15.9884615 15.9884614,12.4 15.9884614,7.99230769 C15.9884614,3.58461538 12.4038461,9.09494702e-15 7.9961538,9.09494702e-15 Z M8,15.36 C3.94018349,15.36 0.64,12.0598165 0.64,8 C0.64,3.94018349 3.94018349,0.64 8,0.64 C12.0598165,0.64 15.36,3.94018349 15.36,8 C15.36,12.0598165 12.0598165,15.36 8,15.36 Z"/>
  </g>
</svg>
