<svg xmlns="http://www.w3.org/2000/svg" width="16" height="16" viewBox="0 0 16 16">
  <path fill="#FFF" d="M12.1464501,3.62375268 C12.7425374,3.05874911 13.6764578,3.05874911 14.2725451,3.62375268 C14.2904865,3.64075846 14.3079705,3.65824035 14.3249785,3.67617964 C14.8525813,4.23267285 14.8291611,5.11150637 14.2726679,5.63910923 L14.2726679,5.63910923 L7.44059963,12.1164905 L7.44059963,12.1164905 C7.23508997,12.3102762 6.97227575,12.4002126 6.71321472,12.3900226 C6.4542559,12.4004439 6.19102704,12.3105232 5.98723438,12.1183616 L5.98525544,12.1164905 L-0.846812792,5.63910923 C-1.40330601,5.11150637 -1.42672627,4.23267285 -0.899123411,3.67617964 C-0.882115441,3.65824035 -0.864631427,3.64075846 -0.846690066,3.62375268 C-0.250602777,3.05874911 0.683317639,3.05874911 1.27940493,3.62375268 L6.712,8.774 Z" transform="rotate(90 6.713 8.003)"/>
</svg>
