<svg xmlns="http://www.w3.org/2000/svg" width="16" height="16" viewBox="0 0 16 16">
  <path fill="#FFF" d="M8,0 C10.2091887,0 12,1.63867899 12,3.65980658 L12,3.65980658 L12.0010775,7.26818814 C12.5982846,7.61415066 13,8.2601625 13,9 L13,14 C13,15.1045695 12.1045695,16 11,16 L5,16 C3.8954305,16 3,15.1045695 3,14 L3,9 C3,8.25974756 3.40216612,7.61342606 3.99992752,7.26760632 L4,3.65980658 C4,2.64907371 4.4475251,1.73437568 5.17159868,1.07193818 C5.89425042,0.410853275 6.89238425,0.00135260338 7.99502355,0 L7.99502355,0 Z M8,2.00117669 C6.90695814,2.00354375 6.02577091,2.77790918 6.02577091,3.73318532 L6.02577091,3.73318532 L6.025,7 L9.974,7 L9.97422909,3.73318532 C9.97422909,3.30816728 9.79953549,2.9186843 9.50981497,2.61722259 L9.39589443,2.50840296 C9.03865636,2.19493713 8.54527682,2.00117669 8,2.00117669 L8,2.00117669 Z"/>
</svg>
