<svg xmlns="http://www.w3.org/2000/svg" width="16" height="16" viewBox="0 0 16 16">
  <g fill="#FFF" transform="translate(0 1.92)">
    <path d="M14.5658947 12.5671724C14.9254156 12.5671724 15.2369365 12.4484646 15.5017641 12.214069L10.9703956 7.68252632C10.861677 7.7603775 10.7562976 7.83607985 10.656755 7.90806534 10.3176479 8.15790926 10.0424247 8.35287114 9.8310853 8.4925735 9.61977495 8.63259528 9.33862795 8.7753176 8.98767332 8.92103085 8.63648639 9.06691833 8.30931397 9.13962976 8.00580762 9.13962976L7.99692196 9.13962976 7.9880363 9.13962976C7.68450091 9.13962976 7.35732849 9.06694737 7.0061706 8.92103085 6.6550127 8.7753176 6.3738657 8.63259528 6.16275862 8.4925735 5.95144828 8.35287114 5.67637024 8.15793829 5.33708893 7.90806534 5.24254083 7.83875136 5.13768421 7.76270054 5.02431942 7.68130672L.492079855 12.214069C.756878403 12.4484646 1.06860254 12.5671724 1.42809437 12.5671724L14.5658947 12.5671724 14.5658947 12.5671724zM.901546279 4.82900907C.56246824 4.60294737.261778584 4.34404356 0 4.05241379L0 10.9467877 3.99393103 6.95285662C3.19491833 6.39503448 2.16543013 5.68789837.901546279 4.82900907zM15.1015318 4.82900907C13.8858512 5.65183303 12.8526171 6.36018875 12.0017132 6.95445372L15.9940472 10.9469619 15.9940472 4.05241379C15.7380762 4.33817786 15.4406098 4.59690744 15.1015318 4.82900907z"/>
    <path d="M14.5658947,0.000377495463 L1.42812341,0.000377495463 C0.969785844,0.000377495463 0.617408348,0.155150635 0.370555354,0.464377495 C0.123499093,0.773749546 0.000174228675,1.16065336 0.000174228675,1.62465336 C0.000174228675,1.99944828 0.163833031,2.40554628 0.491005445,2.84306352 C0.818177858,3.28040653 1.16631579,3.6239274 1.53524501,3.87380036 C1.73749546,4.01669691 2.34741198,4.44071143 3.36499456,5.14569873 C3.91430853,5.52635935 4.39201452,5.85814882 4.80252632,6.14446461 C5.15243557,6.3882686 5.45419964,6.59940472 5.70334664,6.77462069 C5.73194918,6.79468603 5.77692922,6.82686025 5.83663158,6.86954628 C5.900951,6.91574592 5.98234483,6.97437387 6.08275862,7.04688203 C6.27612341,7.18672958 6.43676225,7.29977495 6.56470417,7.3861343 C6.69247187,7.47252269 6.84727405,7.56901633 7.0288784,7.67616697 C7.21033757,7.78317241 7.3814882,7.86363702 7.54212704,7.91715426 C7.70279492,7.97064247 7.85152813,7.99747368 7.98835572,7.99747368 L7.99724138,7.99747368 L8.00612704,7.99747368 C8.14292559,7.99747368 8.29168784,7.97064247 8.45238475,7.91715426 C8.61299456,7.86363702 8.784,7.78334664 8.96560436,7.67616697 C9.14703448,7.56901633 9.30163339,7.47231942 9.42980762,7.3861343 C9.55774955,7.29977495 9.71838838,7.18675862 9.91178221,7.04688203 C10.0119927,6.97437387 10.0933866,6.91571688 10.157706,6.86969147 C10.2174374,6.82683122 10.2623884,6.79486025 10.2911652,6.77462069 C10.4852559,6.63956443 10.7877169,6.42929946 11.1943666,6.14693285 C11.9343158,5.63281307 13.0240581,4.87610889 14.4681815,3.87380036 C14.9025045,3.5704392 15.2653648,3.20435572 15.5569946,2.7760726 C15.8481016,2.34778947 15.9940472,1.89854083 15.9940472,1.42847187 C15.9940472,1.0357314 15.8525445,0.699673321 15.5701488,0.419774955 C15.2874338,0.140225045 14.9526534,0.000377495463 14.5658947,0.000377495463 Z"/>
  </g>
</svg>
