<svg xmlns="http://www.w3.org/2000/svg" width="16" height="16" viewBox="0 0 16 16">
  <g fill="none" fill-rule="evenodd">
    <g fill="#FFF" fill-rule="nonzero" transform="translate(.64)">
      <path d="M13.3915597,11.2362061 L8.31171426,12.3428955 L1.18202162,11.2362061 C1.74146741,11.2362061 2.0578445,10.9414063 2.23741968,10.4525147 C3.10609348,8.09240722 0.79245734,1.21398925 7.28697238,1.21398925 C13.7814875,1.21398925 11.4674878,8.09240722 12.3361616,10.4525147 C12.5161003,10.9414063 12.8323562,11.2362061 13.3915597,11.2362061 Z"/>
      <path d="M14.5735813 12.427124C14.5735813 13.0847168 14.044307 13.6179199 13.3915597 13.6179199L1.18202162 13.6179199C.855708537 13.6179199.560051671 13.4847412.346185102 13.269165.132197402 13.0537109 0 12.7558594 0 12.427124 0 11.7694092.52927426 11.2362061 1.18202162 11.2362061L13.3915597 11.2362061C13.7178728 11.2362061 14.0135296 11.3695068 14.2273962 11.5849609 14.4413839 11.8005371 14.5735813 12.0982666 14.5735813 12.427124L14.5735813 12.427124zM8.48850253 1.30517578C8.49104711 1.2751465 8.49201648 1.24475097 8.49201648 1.21398925 8.49201648.543701188 7.95244271 0 7.28697238 0 6.62125977 0 6.08192832.543701187 6.08192832 1.21398925 6.08192832 1.24475097 6.08289768 1.2751465 6.0854423 1.30517578"/>
    </g>
    <path fill="#FFF" d="M8,16 C9.25491298,16 10.3223638,15.197379 10.7170132,14.0774762 L5.28365602,14.0793732 C5.67884194,15.1982853 6.74579572,16 8,16 Z"/>
  </g>
</svg>
