<svg xmlns="http://www.w3.org/2000/svg" width="16" height="16" viewBox="0 0 16 16">
  <path fill="#FFF" d="M0.619085057,10.5959843 L3.80370668,13.7808529 L0.498681941,14.392936 C0.362247577,14.4182203 0.221903838,14.3747673 0.123550721,14.2764144 C0.0253101033,14.1781739 -0.0182273933,14.0378586 0.00705697974,13.9012557 L0.00705697974,13.9012557 L0.619085057,10.5959843 Z M9.37706875,1.55457458 L12.844431,5.02221128 L4.5416785,13.3255663 L1.07431627,9.85795771 L9.37706875,1.55457458 Z M10.4844062,0.447154951 C11.0805999,-0.149037588 12.050631,-0.149065713 12.646881,0.447154951 L12.646881,0.447154951 L13.9517684,1.7521523 C14.5494527,2.34983546 14.5493683,3.31716475 13.9517684,3.91479166 L13.9517684,3.91479166 L13.4410184,4.42556874 L9.9736562,0.957932039 Z" transform="translate(.8 .8)"/>
</svg>
