<svg xmlns="http://www.w3.org/2000/svg" width="16" height="16" viewBox="0 0 16 16">
  <path fill="#FFF" d="M14.4186997,11.9103924 L12.3431014,9.82985883 C11.9296806,9.41716544 11.2450479,9.42970414 10.8172248,9.8586514 L9.7715294,10.9064839 C9.70546394,10.8699901 9.63708175,10.831871 9.56518585,10.7914298 C8.90484015,10.4247116 8.00104458,9.92208017 7.04998768,8.96817175 C6.0961121,8.01225094 5.59415361,7.10501434 5.22714472,6.44274671 C5.1884167,6.37258418 5.15131038,6.30493714 5.11466741,6.24069567 L5.81648261,5.53833517 L6.16152115,5.19208913 C6.59000064,4.76252268 6.60181597,4.07653215 6.18936054,3.66263906 L4.11376218,1.58187335 C3.70130674,1.16856076 3.01636508,1.18109946 2.58788558,1.61066591 L2.00291088,2.20033294 L2.01889633,2.21623851 C1.82274639,2.46708984 1.65883764,2.75640865 1.53686173,3.06840547 C1.42442302,3.36538682 1.35441912,3.64878458 1.32240961,3.93276283 C1.04834028,6.21000683 2.08662211,8.29123694 4.90438541,11.1154235 C8.79939025,15.0189829 11.9382525,14.7240913 12.0736655,14.709695 C12.3685854,14.6743622 12.6512267,14.6037353 12.9384628,14.4919319 C13.2470514,14.3711115 13.5355231,14.2070636 13.7856529,14.0108949 L13.7984335,14.0222726 L14.3910534,13.4406551 C14.8186448,13.0111661 14.8309621,12.3249433 14.4186997,11.9103924 Z"/>
</svg>
