<svg xmlns="http://www.w3.org/2000/svg" width="16" height="16" viewBox="0 0 16 16">
  <g fill="#FFF">
    <path d="M13.203125 3.09375L13.203125 2.34375C13.203125 1.05140625 12.1517188 0 10.859375 0L5.109375 0C3.81703125 0 2.765625 1.05140625 2.765625 2.34375L2.765625 3.09375 13.203125 3.09375zM12.265625 9.96875L12.265625 15.0625C12.265625 15.58025 11.8459063 16 11.328125 16L11.328125 16 4.640625 16C4.12284375 16 3.703125 15.58025 3.703125 15.0625L3.703125 15.0625 3.703125 9.96875 12.265625 9.96875zM11.2 13.44L4.8 13.44C4.62326888 13.44 4.48 13.5832689 4.48 13.76 4.48 13.9367311 4.62326888 14.08 4.8 14.08L4.8 14.08 11.2 14.08C11.3767311 14.08 11.52 13.9367311 11.52 13.76 11.52 13.5832689 11.3767311 13.44 11.2 13.44L11.2 13.44zM11.2 12.16L4.8 12.16C4.62326888 12.16 4.48 12.3032689 4.48 12.48 4.48 12.6567311 4.62326888 12.8 4.8 12.8L4.8 12.8 11.2 12.8C11.3767311 12.8 11.52 12.6567311 11.52 12.48 11.52 12.3032689 11.3767311 12.16 11.2 12.16L11.2 12.16zM11.2 10.88L4.8 10.88C4.62326888 10.88 4.48 11.0232689 4.48 11.2 4.48 11.3767311 4.62326888 11.52 4.8 11.52L4.8 11.52 11.2 11.52C11.3767311 11.52 11.52 11.3767311 11.52 11.2 11.52 11.0232689 11.3767311 10.88 11.2 10.88L11.2 10.88z"/>
    <path d="M13.640625,4.03125 C14.9329688,4.03125 15.984375,5.08265625 15.984375,6.375 L15.984375,6.375 L15.984375,10.125 C15.984375,11.4173438 14.9329688,12.46875 13.640625,12.46875 L13.640625,12.46875 L13.203125,12.46875 L13.203125,9.96875 L13.484375,9.96875 C13.74325,9.96875 13.953125,9.758875 13.953125,9.5 C13.953125,9.241125 13.74325,9.03125 13.484375,9.03125 L13.484375,9.03125 L2.484375,9.03125 C2.2255,9.03125 2.015625,9.241125 2.015625,9.5 C2.015625,9.758875 2.2255,9.96875 2.484375,9.96875 L2.484375,9.96875 L2.765625,9.96875 L2.765625,12.46875 L2.359375,12.46875 C1.06703125,12.46875 0.015625,11.4173438 0.015625,10.125 L0.015625,10.125 L0.015625,6.375 C0.015625,5.08265625 1.06703125,4.03125 2.359375,4.03125 L2.359375,4.03125 Z M13.135625,5.95125 C12.7821628,5.95125 12.495625,6.23778776 12.495625,6.59125 C12.495625,6.94471224 12.7821628,7.23125 13.135625,7.23125 C13.4890872,7.23125 13.775625,6.94471224 13.775625,6.59125 C13.775625,6.23778776 13.4890872,5.95125 13.135625,5.95125 Z"/>
  </g>
</svg>
