<svg xmlns="http://www.w3.org/2000/svg" width="16" height="16" viewBox="0 0 16 16">
  <g fill="#FFF" transform="translate(3.2)">
    <ellipse cx="4.48" cy="14.671" rx="1.28" ry="1.231"/>
    <path d="M4.48,0 C2.009728,0 0,2.10332601 0,4.68864469 C0,5.3360293 0.501424,5.86080586 1.12,5.86080586 C1.738576,5.86080586 2.24,5.3360293 2.24,4.68864469 C2.24,3.39598535 3.244864,2.34432234 4.48,2.34432234 C5.715136,2.34432234 6.72,3.39598535 6.72,4.68864469 C6.72,5.98130403 5.715136,7.03296703 4.48,7.03296703 C3.861424,7.03296703 3.36,7.55774359 3.36,8.20512821 L3.36,11.1355311 C3.36,11.7829158 3.861424,12.3076923 4.48,12.3076923 C5.098576,12.3076923 5.6,11.7829158 5.6,11.1355311 L5.6,9.22895238 C7.530096,8.70716484 8.96,6.86939194 8.96,4.68864469 C8.96,2.10332601 6.950272,0 4.48,0 Z"/>
  </g>
</svg>
