<svg xmlns="http://www.w3.org/2000/svg" width="16" height="16" viewBox="0 0 16 16">
  <path fill="#FFF" fill-rule="evenodd" d="M8,0 C10.1274909,0 12.0610164,0.830464818 13.4940891,2.18490703 L14.8264466,0.853553391 C15.0217088,0.658291245 15.3382912,0.658291245 15.5335534,0.853553391 C15.6273216,0.94732158 15.68,1.07449854 15.68,1.20710678 L15.6805551,5.75447313 C15.6831055,5.76321125 15.6856415,5.77195556 15.6881629,5.78070602 L15.6870365,5.79619873 L15.6868549,5.81829757 L15.6860511,5.88069429 L15.6856029,5.89629347 L15.6851237,5.9014932 L15.6770921,5.99110043 C15.6401588,6.19458398 15.4797077,6.35503505 15.2762242,6.39196839 L15.2189298,6.39850686 C15.2060831,6.39949618 15.1931004,6.4 15.18,6.4 L10.4871068,6.4 C10.2109644,6.4 9.98710678,6.17614237 9.98710678,5.9 C9.98710678,5.76739176 10.0397852,5.6402148 10.1335534,5.54644661 L11.6829628,3.99628865 C10.7140572,3.10454461 9.4206212,2.56 8,2.56 C4.99557096,2.56 2.56,4.99557096 2.56,8 C2.56,11.004429 4.99557096,13.44 8,13.44 C9.61882906,13.44 11.0725068,12.7329032 12.0690253,11.6107176 L12.0679883,11.6091309 C12.325653,11.326157 12.4973328,11.1128236 12.5830275,10.9691309 C12.6687222,10.8254381 12.7821661,10.6121048 12.9233594,10.3291309 C13.1117169,9.93574995 13.495393,9.65268774 13.9491274,9.6066085 L14.08,9.6 C14.7427417,9.6 15.2878427,10.1036797 15.3533915,10.7491274 L15.36,10.88 L15.354,10.996 L15.353,11.006 L15.352,11.013 L15.3449528,11.0768764 C15.3409715,11.1025922 15.3363435,11.1275094 15.3310053,11.152162 C15.3267791,11.1717129 15.3219918,11.191526 15.3167497,11.2111533 C15.3103341,11.2351595 15.3032994,11.2587027 15.2956164,11.281951 C15.2925995,11.2910742 15.2895639,11.2999238 15.2864346,11.308729 L15.2812313,11.3230957 L15.2334776,11.4355561 L15.181,11.531 L15.1754104,11.5414683 C13.8690427,14.1832655 11.1466819,16 8,16 C3.581722,16 7.83089149e-13,12.418278 7.83089149e-13,8 C7.83089149e-13,3.581722 3.581722,0 8,0 Z"/>
</svg>
