<svg xmlns="http://www.w3.org/2000/svg" width="16" height="16" viewBox="0 0 16 16">
  <path fill="#FFF" d="M8.73984309,0.207117193 L8.84617518,0.309394115 L15.2025519,7.11836643 C15.3921208,7.32143329 15.4809548,7.58270107 15.4707877,7.8402731 C15.4809548,8.09751525 15.3921208,8.35878304 15.2025519,8.5618499 L8.84617518,15.3708222 C8.33661095,15.9166692 7.48103114,15.9460821 6.9351842,15.4365179 C6.91249942,15.4153409 6.89055045,15.3933893 6.86937629,15.3707019 C6.31284942,14.774403 6.31284942,13.8490686 6.86937629,13.2527697 L10.461,9.40196385 L1.56938743,9.40245028 C0.702638686,9.40245028 1.26618716e-13,8.6998116 1.26618716e-13,7.83306285 C1.26618716e-13,6.96631411 0.702638686,6.26367542 1.56938743,6.26367542 L10.448,6.26296385 L6.86937629,2.42744661 C6.31284942,1.83114769 6.31284942,0.905813293 6.86937629,0.309514379 C6.89055045,0.286827021 6.91249942,0.264875381 6.9351842,0.243698467 C7.44464134,-0.23189482 8.22391023,-0.237979097 8.73984309,0.207117193 Z"/>
</svg>
