<svg xmlns="http://www.w3.org/2000/svg" width="16" height="16" viewBox="0 0 16 16">
  <path fill="#FFF" d="M15.1464501,3.62375268 C15.7425374,3.05874911 16.6764578,3.05874911 17.2725451,3.62375268 C17.2904865,3.64075846 17.3079705,3.65824035 17.3249785,3.67617964 C17.8525813,4.23267285 17.8291611,5.11150637 17.2726679,5.63910923 L17.2726679,5.63910923 L10.4405996,12.1164905 L10.4405996,12.1164905 C10.23509,12.3102762 9.97227575,12.4002126 9.71321472,12.3900226 C9.4542559,12.4004439 9.19102704,12.3105232 8.98723438,12.1183616 L8.98525544,12.1164905 L2.15318721,5.63910923 C1.59669399,5.11150637 1.57327373,4.23267285 2.10087659,3.67617964 C2.11788456,3.65824035 2.13536857,3.64075846 2.15330993,3.62375268 C2.74939722,3.05874911 3.68331764,3.05874911 4.27940493,3.62375268 L9.712,8.774 Z" transform="matrix(0 1 1 0 1.71 -1.71)"/>
</svg>
