<svg xmlns="http://www.w3.org/2000/svg" width="16" height="16" viewBox="0 0 16 16">
  <path fill="#FFF" d="M5.3459282,9.05660377 C5.52691615,9.05660377 5.68347492,9.12242859 5.81575082,9.25400553 C5.94795357,9.38525534 6.0141098,9.54111222 6.0141098,9.72095826 C6.0141098,9.86477694 5.97176981,9.99328908 5.88714601,10.1061783 L5.81575082,10.187911 L4.38529144,11.6095235 C4.87943351,12.0661536 5.43984153,12.4190488 6.06629606,12.668318 C6.69267745,12.9172964 7.34356115,13.041713 8.01869117,13.041713 C8.95138798,13.041713 9.82143934,12.8170508 10.6290281,12.367254 C11.4362877,11.9176025 12.0836606,11.2981732 12.5710006,10.5096929 C12.6156188,10.4410431 12.6970529,10.2747347 12.8151939,10.010674 C12.9731744,9.46306379 13.4795335,9.06394591 14.0796845,9.06394591 C14.8067905,9.06394591 15.3962264,9.64978128 15.3962264,10.3724458 C15.3962264,10.5314619 15.367687,10.6838529 15.3154213,10.8248353 L15.3069386,10.8671346 C14.7896082,12.0906543 14.009941,13.1251284 12.9678648,13.9703845 C11.5479012,15.1221915 9.88437736,15.6981132 7.97703724,15.6981132 C6.96084973,15.6981132 5.9776489,15.5080536 5.02750791,15.1274255 C4.19613454,14.7945031 3.44332741,14.3369933 2.76913552,13.7551882 L2.48500946,13.4982341 L1.1381505,14.8370112 C1.00583803,14.968261 0.849279254,15.0343039 0.668327881,15.0343039 C0.487339936,15.0343039 0.330708018,14.9682247 0.198358984,14.8370112 C0.0925382692,14.7318951 0.0290809483,14.6111467 0.00793084856,14.4750266 L-1.02140518e-13,14.3700585 L-1.02140518e-13,9.72099461 C-1.02140518e-13,9.54114856 0.0660830906,9.38529168 0.198322413,9.25400553 C0.304113871,9.14874398 0.42551659,9.08556378 0.56256802,9.06450217 L0.66829131,9.05660377 L5.3459282,9.05660377 Z M8.02296276,-1.77635684e-15 C9.03915027,-1.77635684e-15 10.0223511,0.190059614 10.9724921,0.570687702 C11.8038655,0.903610064 12.5566726,1.36111991 13.2308645,1.94292503 L13.5149905,2.19987915 L14.8618495,0.86110199 C14.994162,0.729852178 15.1507207,0.66380928 15.3316721,0.66380928 C15.5126601,0.66380928 15.669292,0.729888526 15.801641,0.86110199 C15.9074617,0.96621815 15.9709191,1.08696652 15.9920692,1.22308657 L16,1.32805473 L16,5.9771186 C16,6.15696464 15.9339169,6.31282152 15.8016776,6.44410768 C15.6958861,6.54936923 15.5744834,6.61254942 15.437432,6.63361104 L15.3317087,6.64150943 L10.6540718,6.64150943 C10.4730839,6.64150943 10.3165251,6.57568462 10.1842492,6.44410768 C10.0520464,6.31285787 9.9858902,6.15700099 9.9858902,5.97715495 C9.9858902,5.83333627 10.0282302,5.70482413 10.112854,5.5919349 L10.1842492,5.51020221 L11.6147086,4.08858974 C11.1205665,3.63195961 10.5601585,3.27906446 9.93370394,3.02979522 C9.30732255,2.78081676 8.65643885,2.65640023 7.98130883,2.65640023 C7.04861202,2.65640023 6.17856066,2.8810624 5.3709719,3.33085924 C4.56371228,3.7805107 3.91633935,4.39994003 3.42899942,5.18842027 C3.38438121,5.25707015 3.30294712,5.42337852 3.18480612,5.68743924 C3.02682563,6.23504942 2.52046652,6.6341673 1.92031551,6.6341673 C1.19320948,6.6341673 0.603773585,6.04833193 0.603773585,5.32566737 C0.603773585,5.16665131 0.632313,5.01426027 0.684578718,4.87327796 L0.693061358,4.83097857 C1.21039181,3.60745887 1.99005898,2.5729848 3.03213517,1.72772876 C4.45209878,0.575921701 6.11562264,-1.77635684e-15 8.02296276,-1.77635684e-15 Z"/>
</svg>
