<svg xmlns="http://www.w3.org/2000/svg" width="16" height="16" viewBox="0 0 16 16">
  <path fill="#FFF" d="M6.01693682,0 C9.33999926,0 12.0338736,2.75993316 12.0338736,6.16448326 C12.0338736,7.14220021 11.8117043,8.06675427 11.4162662,8.8880457 L15.4858282,13.0836453 C16.1335231,13.7513351 16.1339355,14.8127016 15.4867596,15.4808945 C14.8650489,16.1227953 13.8406895,16.1391626 13.1987888,15.5174519 C13.1867101,15.5057532 13.1748146,15.4938669 13.1631065,15.4817974 L9.19981292,11.3968294 C8.27656136,11.9875797 7.18566244,12.3289665 6.01693682,12.3289665 C2.69387437,12.3289665 9.88009674e-14,9.56903335 9.88009674e-14,6.16448326 C9.88009674e-14,2.75993316 2.69387437,0 6.01693682,0 Z M6.01693682,2.5955719 C4.09305856,2.5955719 2.53344708,4.19342794 2.53344708,6.16448326 C2.53344708,8.13553857 4.09305856,9.73339461 6.01693682,9.73339461 C7.94081507,9.73339461 9.50042655,8.13553857 9.50042655,6.16448326 C9.50042655,4.19342794 7.94081507,2.5955719 6.01693682,2.5955719 Z"/>
</svg>
