<svg xmlns="http://www.w3.org/2000/svg" width="16" height="16" viewBox="0 0 16 16">
  <path fill="#FFF" d="M8.89447256,0 C9.39543682,0 9.78894512,0.391050404 9.78894512,0.888885597 L9.78894512,0.888885597 L9.78894512,2.9866556 C10.4150163,3.21782512 10.9695893,3.53776467 11.4705535,3.96442976 L11.4705535,3.96442976 L13.7603437,2.63110137 C14.1897501,2.39999111 14.7443231,2.54221281 14.9947158,2.96887789 L14.9947158,2.96887789 L15.8891883,4.49776112 C16.1217512,4.92442621 15.9787549,5.47553528 15.5492888,5.72442324 L15.5492888,5.72442324 L13.2773881,7.02225547 C13.3309968,7.34225429 13.3668354,7.6622531 13.3668354,8.00002963 C13.3668354,8.33780616 13.3309968,8.65780497 13.2773881,8.97780379 L13.2773881,8.97780379 L15.5492888,10.2755175 C15.9787549,10.5244055 16.1217512,11.0755145 15.8891883,11.5021796 L15.8891883,11.5021796 L14.9947158,13.0310628 C14.7443231,13.4577872 14.1898097,13.5999496 13.7603437,13.3688394 L13.7603437,13.3688394 L12.9017096,12.8711227 L11.4705535,12.035511 C10.9695893,12.4622353 10.4150163,12.7822341 9.78894512,13.0133444 L9.78894512,13.0133444 L9.78894512,15.1111144 C9.78894512,15.6088311 9.39543682,16 8.89447256,16 L8.89447256,16 L7.10552744,16 C6.60456318,16 6.21105488,15.6088311 6.21105488,15.1111144 L6.21105488,15.1111144 L6.21105488,13.0133444 C5.58498372,12.7822341 5.03041073,12.4622946 4.52944647,12.035511 L4.52944647,12.035511 L2.23965635,13.3688394 C1.81024989,13.5999496 1.2556769,13.4578465 1.00528421,13.0310628 L1.00528421,13.0310628 L0.110811655,11.5021796 C-0.121751211,11.0755145 0.0212451359,10.5244055 0.450711228,10.2755175 L0.450711228,10.2755175 L2.7226119,8.97780379 C2.66900318,8.65780497 2.63316464,8.33780616 2.63316464,8.00002963 C2.63316464,7.6622531 2.66900318,7.34225429 2.7226119,7.02225547 L2.7226119,7.02225547 L0.450711228,5.72442324 C0.0213047674,5.47553528 -0.121751211,4.92442621 0.110811655,4.49776112 L0.110811655,4.49776112 L1.00528421,2.96887789 C1.2556769,2.54221281 1.81019026,2.39999111 2.23965635,2.63110137 L2.23965635,2.63110137 L3.09829037,3.12893656 L4.52944647,3.96442976 C5.03041073,3.53776467 5.58498372,3.21776586 6.21105488,2.9866556 L6.21105488,2.9866556 L6.21105488,0.888885597 C6.21105488,0.391050404 6.60456318,0 7.10552744,0 L7.10552744,0 Z M8,6 C6.8954305,6 6,6.8954305 6,8 C6,9.1045695 6.8954305,10 8,10 C9.1045695,10 10,9.1045695 10,8 C10,6.8954305 9.1045695,6 8,6 Z"/>
</svg>
