<svg xmlns="http://www.w3.org/2000/svg" width="16" height="16" viewBox="0 0 16 16">
  <path fill="#FFF" d="M9.32194532,0.229430171 C9.11091426,0.00934579105 8.7874427,-0.0597398524 8.50588571,0.0542422622 C8.22323536,0.169323859 8.03808204,0.444566763 8.03808204,0.750779113 L8.03808204,4.00348351 L7.7893278,4.00348351 C2.43883439,4.00348351 0.000175708502,8.38098221 0.000175708502,13.7612301 L0.000175708502,15.2624219 C0.000175708502,15.6105987 0.244009526,15.9008682 0.581331176,15.9800326 C0.636184656,15.9939597 0.690855911,16.000007 0.745527165,16.000007 C1.02726634,16.000007 1.29697786,15.8337983 1.42727769,15.5726657 C2.82667958,12.7573814 3.72561351,11.0089841 6.85572505,11.0089841 L8.03808204,11.0089841 L8.03808204,14.2615052 C8.03808204,14.5679008 8.22323536,14.8431437 8.50588571,14.9571258 C8.7856203,15.0722074 9.11091426,15.0022056 9.32194532,14.7819379 L15.7911948,8.02657485 C16.069836,7.7353891 16.069836,7.27707848 15.7911948,6.98479321 L9.32194532,0.229430171 Z"/>
</svg>
