<svg xmlns="http://www.w3.org/2000/svg" width="16" height="16" viewBox="0 0 16 16">
  <path fill="#FFF" d="M6.24586984,14 L6.24586984,16 L5.24586984,16 L5.24586984,14 L6.24586984,14 Z M8.24586984,14 L8.24586984,16 L7.24586984,16 L7.24586984,14 L8.24586984,14 Z M10.2458698,14 L10.2458698,16 L9.24586984,16 L9.24586984,14 L10.2458698,14 Z M12.1344928,13.995624 L12.2649668,15.9913636 C12.1773838,15.9970913 12.0890316,16 12,16 L12,16 L11.2457517,16 L11.2457517,14 L12.0098628,13.9999767 L12.1344928,13.995624 Z M3.62229856,13.9647591 C3.74519598,13.9881007 3.87130156,14 4,14 L4,14 L4.24586984,14 L4.24586984,16 L4,16 C3.74344126,16 3.49252399,15.975846 3.24939815,15.9296879 L3.24939815,15.9296879 Z M13.114559,13.6611448 L14.231662,15.3200844 C13.9565596,15.5053646 13.6571769,15.6573553 13.3392881,15.7702823 L13.3392881,15.7702823 L12.6696863,13.8857046 C12.8266162,13.8299671 12.9759795,13.7544928 13.114559,13.6611448 L13.114559,13.6611448 Z M2.72351913,13.5398102 C2.85258726,13.6470433 2.99427769,13.7375988 3.14515803,13.8091442 L3.14515803,13.8091442 L2.28833146,15.61631 C1.98442486,15.4722107 1.70157746,15.2909304 1.44566467,15.0783445 L1.44566467,15.0783445 Z M13.7813287,12.9111787 L15.5602965,13.8251116 C15.4068714,14.123801 15.2169632,14.4006699 14.996457,14.6498333 L14.996457,14.6498333 L13.498544,13.3245948 C13.6098713,13.1988364 13.7049598,13.0598783 13.7813287,12.9111787 L13.7813287,12.9111787 Z M2.13258022,12.719065 C2.19251908,12.8745228 2.27202957,13.0220129 2.36912874,13.1582431 L2.36912874,13.1582431 L0.740680345,14.3193442 C0.547887809,14.048904 0.38791401,13.7534507 0.266572653,13.4387982 L0.266572653,13.4387982 Z M16,11.8770651 L15.9951047,12.1996403 C15.9838133,12.4293617 15.9531426,12.6539883 15.9046931,12.8719196 L15.9046931,12.8719196 L13.9523775,12.4377953 C13.9838874,12.2960292 14,12.1497577 14,12 L14,12 L14,11.8770651 L16,11.8770651 Z M2.00000002,11.3685082 L2.00004989,12.0144257 C2.00048407,12.0771617 2.0037504,12.1392651 2.00979404,12.2006734 L2.00979404,12.2006734 L0.0194284524,12.396747 C0.00943365751,12.29524 0.00323332023,11.8109641 0.000971184883,11.5377481 L2.19879439e-08,11.3691013 L2.00000002,11.3685082 Z M16,9.87706508 L16,10.8770651 L14,10.8770651 L14,9.87706508 L16,9.87706508 Z M2,9.36880475 L2,10.3688048 L0,10.3688048 L0,9.36880475 L2,9.36880475 Z M16,7.87706508 L16,8.87706508 L14,8.87706508 L14,7.87706508 L16,7.87706508 Z M2,7.36880475 L2,8.36880475 L0,8.36880475 L0,7.36880475 L2,7.36880475 Z M16,5.87706508 L16,6.87706508 L14,6.87706508 L14,5.87706508 L16,5.87706508 Z M2,5.36880475 L2,6.36880475 L0,6.36880475 L0,5.36880475 L2,5.36880475 Z M15.997,3.86325741 L15.997,4.8770383 L14,4.87709186 L13.9989009,3.93242303 L15.997,3.86325741 Z M0.0492356798,3.37059363 L2.02469088,3.68296647 C2.00832019,3.78659159 2,3.89238339 2,4 L2,4 L2,4.36880475 L0,4.36880475 C0,4.15465531 0.0168286658,3.57563166 0.0492356798,3.37059363 L0.0492356798,3.37059363 Z M15.3889392,1.87413304 C15.565469,2.15495509 15.7080605,2.4592677 15.8109606,2.78131781 L15.8109606,2.78131781 L13.9058057,3.38991024 C13.8551308,3.23134697 13.7845496,3.07989656 13.6957876,2.93866942 L13.6957876,2.93866942 Z M0.842716197,1.54377936 L2.42045752,2.77289787 C2.31745948,2.90509889 2.23154287,3.04933922 2.16489009,3.20223393 L2.16489009,3.20223393 L0.33146182,2.40314646 C0.466012866,2.09446592 0.638381988,1.80605922 0.842716197,1.54377936 L0.842716197,1.54377936 Z M13.93647,0.499149468 C14.2303394,0.662048562 14.5015349,0.86087491 14.7441266,1.08969841 L14.7441266,1.08969841 L13.3716429,2.54444533 C13.2493517,2.42911966 13.1132828,2.32956768 12.9669015,2.24841701 L12.9669015,2.24841701 Z M2.52433355,0.281001865 L3.26218247,2.1399207 C3.10730185,2.20146089 2.96054835,2.28250663 2.82523973,2.38102793 L2.82523973,2.38102793 L1.6474218,0.764629101 C1.91632354,0.568762573 2.21057683,0.405604124 2.52433355,0.281001865 L2.52433355,0.281001865 Z M11.5082603,0 C11.8509392,0 12.6752932,0.0430913897 12.99272,0.124151084 L12.99272,0.124151084 L12.4976904,2.06191933 C12.3373626,2.02099328 12.170935,2 12,2 L12,2 L11.5082603,2 Z M4.50887763,4.54747351e-13 L4.50887763,2 L3.9810796,2.00008585 C3.89743259,2.00084549 3.81490736,2.00664235 3.73366094,2.01734827 L3.73366094,2.01734827 L3.47237525,0.0344892789 C3.64502268,0.0117392465 4.33001805,4.54747351e-13 4.50887763,4.54747351e-13 L4.50887763,4.54747351e-13 Z M6.50826033,0 L6.50826033,2 L5.50826033,2 L5.50826033,0 L6.50826033,0 Z M8.50826033,0 L8.50826033,2 L7.50826033,2 L7.50826033,0 L8.50826033,0 Z M10.5082603,0 L10.5082603,2 L9.50826033,2 L9.50826033,0 L10.5082603,0 Z"/>
</svg>
