<svg xmlns="http://www.w3.org/2000/svg" width="16" height="16" viewBox="0 0 16 16">
  <path fill="#FFF" d="M15.9582598,6.04620798 C15.853521,5.70813494 15.5661608,5.46801903 15.2261869,5.43604603 L10.6081582,4.99848734 L8.78206531,0.538445592 C8.6474186,0.211582241 8.34077075,0 8.00006447,0 C7.65935819,0 7.35271034,0.211582241 7.2180636,0.539209903 L5.39197075,4.99848734 L0.773209573,5.43604603 C0.433846075,5.46878331 0.147218257,5.70813494 0.041869086,6.04620798 C-0.0634800845,6.38428099 0.0338122399,6.75509131 0.290532166,6.98883811 L3.78121503,10.1833352 L2.7518939,14.9147015 C2.67657475,15.262583 2.8059723,15.6221837 3.08259016,15.8308361 C3.23127532,15.9429327 3.40522961,16 3.58064877,16 C3.73189746,16 3.88192541,15.9574543 4.01657214,15.8733818 L8.00006447,13.3890419 L11.9820919,15.8733818 C12.2734806,16.0563031 12.6407988,16.039616 12.9168063,15.8308361 C13.1935462,15.6215467 13.3228217,15.2618187 13.2475026,14.9147015 L12.2181814,10.1833352 L15.7088643,6.98947502 C15.9655842,6.75509131 16.063609,6.38491789 15.9582598,6.04620798 Z"/>
</svg>
