<svg xmlns="http://www.w3.org/2000/svg" width="16" height="16" viewBox="0 0 16 16">
  <path fill="#FFF" fill-rule="evenodd" d="M8,13 C8.55228475,13 9,13.4477153 9,14 L9,15 C9,15.5522847 8.55228475,16 8,16 C7.44771525,16 7,15.5522847 7,15 L7,14 C7,13.4477153 7.44771525,13 8,13 Z M4.46446609,11.5355339 C4.85499039,11.9260582 4.85499039,12.5592232 4.46446609,12.9497475 L3.75735931,13.6568542 C3.36683502,14.0473785 2.73367004,14.0473785 2.34314575,13.6568542 C1.95262146,13.26633 1.95262146,12.633165 2.34314575,12.2426407 L3.05025253,11.5355339 C3.44077682,11.1450096 4.0739418,11.1450096 4.46446609,11.5355339 Z M12.9497475,11.5355339 L13.6568542,12.2426407 C14.0473785,12.633165 14.0473785,13.26633 13.6568542,13.6568542 C13.26633,14.0473785 12.633165,14.0473785 12.2426407,13.6568542 L11.5355339,12.9497475 C11.1450096,12.5592232 11.1450096,11.9260582 11.5355339,11.5355339 C11.9260582,11.1450096 12.5592232,11.1450096 12.9497475,11.5355339 Z M8,4 C10.209139,4 12,5.790861 12,8 C12,10.209139 10.209139,12 8,12 C5.790861,12 4,10.209139 4,8 C4,5.790861 5.790861,4 8,4 Z M15,7 C15.5522847,7 16,7.44771525 16,8 C16,8.55228475 15.5522847,9 15,9 L14,9 C13.4477153,9 13,8.55228475 13,8 C13,7.44771525 13.4477153,7 14,7 L15,7 Z M2,7 C2.55228475,7 3,7.44771525 3,8 C3,8.55228475 2.55228475,9 2,9 L1,9 C0.44771525,9 0,8.55228475 0,8 C0,7.44771525 0.44771525,7 1,7 L2,7 Z M13.6568542,2.34314575 C14.0473785,2.73367004 14.0473785,3.36683502 13.6568542,3.75735931 L12.9497475,4.46446609 C12.5592232,4.85499039 11.9260582,4.85499039 11.5355339,4.46446609 C11.1450096,4.0739418 11.1450096,3.44077682 11.5355339,3.05025253 L12.2426407,2.34314575 C12.633165,1.95262146 13.26633,1.95262146 13.6568542,2.34314575 Z M3.75735931,2.34314575 L4.46446609,3.05025253 C4.85499039,3.44077682 4.85499039,4.0739418 4.46446609,4.46446609 C4.0739418,4.85499039 3.44077682,4.85499039 3.05025253,4.46446609 L2.34314575,3.75735931 C1.95262146,3.36683502 1.95262146,2.73367004 2.34314575,2.34314575 C2.73367004,1.95262146 3.36683502,1.95262146 3.75735931,2.34314575 Z M8,0 C8.55228475,-1.01453063e-16 9,0.44771525 9,1 L9,2 C9,2.55228475 8.55228475,3 8,3 C7.44771525,3 7,2.55228475 7,2 L7,1 C7,0.44771525 7.44771525,1.01453063e-16 8,0 Z"/>
</svg>
